<?xml version="1.0" encoding="utf-8"?>
<!-- Generator: Adobe Illustrator 25.4.1, SVG Export Plug-In . SVG Version: 6.00 Build 0)  -->
<svg version="1.1" id="Calque_1" xmlns="http://www.w3.org/2000/svg" xmlns:xlink="http://www.w3.org/1999/xlink" x="0px" y="0px"
	 viewBox="0 0 421 70" style="enable-background:new 0 0 421 70;" xml:space="preserve">
<style type="text/css">
	.st0{fill:#FFFFFF;}
	.st1{fill:#F87060;}
</style>
<g>
	<path class="st0" d="M116.75,33.63c-0.33-3.14-0.9-5.46-1.75-7.08c-0.86-1.66-2.07-2.97-3.59-3.9c-1.52-0.93-3.23-1.41-5.09-1.41
		c-1.99,0-3.81,0.55-5.42,1.64c-1.08,0.73-2.01,1.69-2.78,2.86c-0.41-0.67-0.85-1.23-1.3-1.7c-0.84-0.85-1.89-1.54-3.11-2.05
		c-1.22-0.51-2.5-0.76-3.8-0.76c-1.92,0-3.73,0.53-5.36,1.57l-0.01,0l-0.01,0c-0.54,0.36-1.07,0.81-1.58,1.36l-0.13-1.24
		c-0.06-0.62-0.58-1.08-1.21-1.08h-0.09c-1.07,0-2.05,0.42-2.74,1.19c-0.7,0.77-1.02,1.78-0.9,2.86l2.15,20.34
		c0.15,1.4,1.37,2.5,2.78,2.5c0.71,0,1.38-0.29,1.84-0.8c0.46-0.51,0.69-1.21,0.61-1.92l-1-9.46c-0.3-2.82-0.25-4.91,0.15-6.21
		c0.38-1.23,1.03-2.18,2-2.9c0.97-0.72,2.02-1.07,3.22-1.07c1.03,0,1.92,0.25,2.71,0.76c0.79,0.51,1.36,1.17,1.75,2.02
		c0.29,0.63,0.71,2.11,1.07,5.53l1.28,12.08c0.07,0.62,0.59,1.08,1.21,1.08h1.49c0.69,0,1.35-0.29,1.8-0.78
		c0.45-0.5,0.67-1.18,0.6-1.87l-0.83-7.87c-0.35-3.26-0.33-5.59,0.05-6.91c0.35-1.24,1-2.21,1.96-2.95c0.96-0.73,2.04-1.09,3.3-1.09
		c1.03,0,1.92,0.23,2.7,0.72c0.78,0.48,1.34,1.09,1.72,1.87c0.28,0.58,0.69,1.9,1,4.91l1.36,12.89c0.07,0.62,0.58,1.08,1.21,1.08
		h2.91c0.34,0,0.66-0.14,0.88-0.39c0.22-0.25,0.33-0.58,0.3-0.92L116.75,33.63z"/>
	<path class="st1" d="M117.51,20.7h3.86l12.06,21.73l7.18-21.73h3.89l-12.86,38.54h-3.86l4.15-12.46L117.51,20.7z"/>
	<path class="st1" d="M156.45,10.76l21.94,38.15h-4.14l-7.37-12.55h-16.54l-4.65,12.55h-4.28l14.1-38.15H156.45z M156.82,18.87
		l-5.12,13.81h13.12L156.82,18.87z"/>
	<path class="st0" d="M205.97,34.66c-0.39-3.68-2.04-6.88-4.91-9.49c-2.87-2.61-6.19-3.94-9.86-3.94c-2.13,0-4.05,0.47-5.7,1.39
		c-0.81,0.45-1.56,1.01-2.25,1.67c-0.1,0-0.28-0.1-0.3-0.27c-0.13-1.22-1.2-2.18-2.43-2.18h-0.63c-0.63,0-1.22,0.26-1.63,0.71
		c-0.41,0.45-0.61,1.07-0.54,1.7l3.18,30.11c0.13,1.22,1.2,2.18,2.43,2.18h0.63c0.63,0,1.22-0.26,1.63-0.71
		c0.41-0.45,0.61-1.07,0.54-1.7l-0.91-8.64c0-0.01,0-0.02,0-0.03c0.01,0,0.02,0,0.03,0c0.05,0,0.11,0.02,0.17,0.07
		c0.85,0.64,1.75,1.19,2.67,1.62c1.82,0.85,3.79,1.29,5.85,1.29c3.7,0,6.77-1.36,9.11-4.04C205.39,41.73,206.37,38.45,205.97,34.66z
		 M199.08,30.65c0.92,1.36,1.46,2.82,1.62,4.33c0.16,1.5-0.07,2.89-0.7,4.26c-0.62,1.35-1.5,2.37-2.7,3.11
		c-1.2,0.75-2.5,1.12-3.96,1.12c-1.5,0-2.99-0.39-4.43-1.14c-1.44-0.76-2.6-1.79-3.47-3.08c-0.86-1.29-1.39-2.77-1.56-4.4
		c-0.26-2.47,0.31-4.46,1.75-6.1c1.43-1.62,3.27-2.41,5.63-2.41c1.52,0,2.99,0.38,4.36,1.13C197,28.21,198.17,29.29,199.08,30.65z"
		/>
	<path class="st0" d="M236.76,34.66c-0.39-3.68-2.04-6.88-4.91-9.49c-2.87-2.61-6.19-3.94-9.86-3.94c-2.13,0-4.05,0.47-5.7,1.39
		c-0.81,0.45-1.56,1.01-2.25,1.67c-0.1,0-0.28-0.1-0.3-0.27c-0.13-1.22-1.2-2.18-2.43-2.18h-0.63c-0.63,0-1.22,0.26-1.63,0.71
		c-0.41,0.45-0.61,1.07-0.54,1.7l3.18,30.11c0.13,1.22,1.2,2.18,2.43,2.18h0.63c0.63,0,1.22-0.26,1.63-0.71
		c0.41-0.45,0.61-1.07,0.54-1.7l-0.91-8.64c0-0.01,0-0.02,0-0.03c0.01,0,0.02,0,0.03,0c0.05,0,0.11,0.02,0.17,0.07
		c0.85,0.64,1.75,1.19,2.67,1.62c1.82,0.85,3.79,1.29,5.85,1.29c3.7,0,6.77-1.36,9.11-4.04C236.18,41.73,237.16,38.45,236.76,34.66z
		 M229.87,30.65c0.92,1.36,1.46,2.82,1.62,4.33c0.16,1.5-0.07,2.89-0.7,4.26c-0.62,1.35-1.5,2.37-2.7,3.11
		c-1.2,0.75-2.5,1.12-3.96,1.12c-1.5,0-2.99-0.39-4.43-1.14c-1.44-0.76-2.6-1.79-3.47-3.08c-0.86-1.29-1.39-2.77-1.56-4.4
		c-0.26-2.47,0.31-4.46,1.75-6.1c1.43-1.62,3.27-2.41,5.63-2.41c1.52,0,2.99,0.38,4.36,1.13C227.79,28.21,228.96,29.29,229.87,30.65
		z"/>
	<path class="st0" d="M255.2,40.24c-0.17-1.6-0.79-3.05-1.85-4.32l0-0.01l0-0.01c-1.05-1.22-2.81-2.42-5.39-3.68
		c-2.32-1.12-3.27-1.86-3.66-2.28c-0.51-0.54-0.78-1.06-0.84-1.6c-0.06-0.55,0.11-1.01,0.53-1.44c0.44-0.45,0.98-0.66,1.7-0.66
		c1.03,0,2.18,0.45,3.42,1.35c0.45,0.33,0.98,0.5,1.53,0.5c0.7,0,1.36-0.29,1.8-0.81c0.43-0.5,0.63-1.14,0.55-1.81
		c-0.08-0.73-0.48-1.41-1.1-1.86c-2.17-1.59-4.31-2.39-6.35-2.39c-2.2,0-3.99,0.72-5.32,2.14c-1.33,1.43-1.9,3.23-1.67,5.36
		c0.17,1.59,0.77,3.03,1.8,4.27c1,1.21,2.68,2.38,5.12,3.57c2.49,1.2,3.47,1.92,3.85,2.32c0.48,0.51,0.75,1.07,0.82,1.71
		c0.08,0.75-0.14,1.35-0.7,1.91c-0.58,0.58-1.32,0.86-2.27,0.86c-1.14,0-2.32-0.48-3.52-1.42c-0.47-0.37-1.05-0.58-1.64-0.58
		c-0.75,0-1.43,0.33-1.88,0.9l-0.08,0.1c-0.81,1.04-0.61,2.57,0.47,3.46c0.77,0.64,1.63,1.18,2.57,1.6
		c1.46,0.66,2.97,0.99,4.51,0.99c2.38,0,4.32-0.8,5.77-2.39C254.83,44.46,255.44,42.51,255.2,40.24z"/>
	<path class="st0" d="M268.51,24.13c-0.14-1.28-1.25-2.29-2.55-2.29h-2.34c-0.18,0-0.38-0.18-0.4-0.36l-0.2-1.89
		c-0.17-1.61-0.14-2.06-0.13-2.16c0.01-0.02,0.06-0.08,0.2-0.17c0.19-0.12,0.49-0.19,0.87-0.19c0.3,0,0.64,0.04,1.02,0.13
		c0.19,0.04,0.38,0.07,0.57,0.07c0.66,0,1.28-0.27,1.71-0.75c0.43-0.48,0.63-1.1,0.56-1.76l-0.01-0.14c-0.11-1.07-0.94-1.98-2-2.23
		c-1.06-0.24-2.02-0.37-2.84-0.37c-1.27,0-2.37,0.28-3.25,0.83c-0.93,0.58-1.56,1.37-1.87,2.34c-0.29,0.88-0.33,2.23-0.13,4.1
		l0.25,2.4c0.01,0.05,0,0.09-0.02,0.11c-0.02,0.03-0.06,0.03-0.1,0.03h-0.49c-0.66,0-1.28,0.27-1.7,0.74
		c-0.43,0.47-0.63,1.12-0.57,1.77c0.14,1.28,1.25,2.29,2.55,2.29h0.48c0.18,0,0.38,0.18,0.4,0.36l1.96,18.53
		c0.14,1.28,1.25,2.29,2.55,2.29h0.42c0.66,0,1.28-0.27,1.7-0.74c0.43-0.47,0.63-1.12,0.57-1.77l-1.94-18.54
		c-0.01-0.05,0-0.09,0.02-0.11c0.02-0.02,0.06-0.03,0.1-0.03h2.34c0.66,0,1.28-0.27,1.7-0.74
		C268.37,25.43,268.58,24.78,268.51,24.13z"/>
	<path class="st0" d="M299.26,45.44L296.99,24c-0.13-1.21-1.18-2.16-2.4-2.16h-0.64c-0.62,0-1.21,0.26-1.61,0.7
		c-0.41,0.45-0.6,1.06-0.54,1.68l0.01,0.07c0,0.01,0,0.01,0,0.02c0,0-0.01,0-0.01,0c-0.04,0-0.08-0.02-0.12-0.06
		c-0.81-0.66-1.68-1.22-2.57-1.66c-1.83-0.9-3.83-1.36-5.96-1.36c-3.72,0-6.8,1.35-9.17,4.02c-2.36,2.66-3.36,5.9-2.97,9.63
		c0.4,3.76,2.04,6.99,4.89,9.6c2.85,2.62,6.16,3.95,9.82,3.95c2.08,0,3.98-0.44,5.65-1.3c0.87-0.45,1.69-1.02,2.44-1.7
		c0,0,0.01,0,0.02,0c0.08,0,0.24,0.08,0.26,0.23c0.13,1.21,1.18,2.16,2.4,2.16h0.64c0.62,0,1.21-0.26,1.61-0.7
		C299.13,46.67,299.33,46.06,299.26,45.44z M292.53,39.39c-0.57,1.25-1.46,2.22-2.7,2.96c-1.26,0.75-2.61,1.12-4.11,1.12
		c-1.48,0-2.93-0.39-4.31-1.15c-1.39-0.77-2.57-1.85-3.49-3.23c-0.92-1.38-1.47-2.84-1.63-4.33c-0.16-1.49,0.07-2.92,0.69-4.25
		c0.61-1.33,1.49-2.34,2.68-3.07c1.2-0.74,2.53-1.1,4.05-1.1c2.41,0,4.48,0.82,6.31,2.49c1.84,1.69,2.86,3.73,3.13,6.24
		C293.32,36.68,293.11,38.13,292.53,39.39z"/>
	<path class="st0" d="M323.65,22.51c-0.3-0.42-0.78-0.67-1.29-0.67h-2.32c-0.63,0-1.19,0.39-1.4,0.98L313.4,37.7l-8.57-15.05
		c-0.28-0.5-0.81-0.8-1.37-0.8h-2.3c-0.54,0-1.01,0.27-1.28,0.72c-0.27,0.46-0.27,1.03,0,1.51l13.06,22.95
		c0.28,0.5,0.81,0.8,1.37,0.8c0.63,0,1.19-0.39,1.4-0.98l8.14-22.95C324.01,23.44,323.94,22.92,323.65,22.51z"/>
	<path class="st0" d="M353.94,34.79c-0.38-3.55-1.9-6.67-4.54-9.26c-2.91-2.85-6.4-4.3-10.37-4.3c-4.04,0-7.28,1.48-9.63,4.41
		c-2.13,2.64-3.01,5.79-2.63,9.37c0.38,3.57,1.97,6.73,4.75,9.39c2.79,2.68,6.21,4.04,10.16,4.04c3.99,0,7.16-1.39,9.44-4.13
		C353.37,41.61,354.32,38.4,353.94,34.79z M348.01,39.34c-0.6,1.3-1.45,2.27-2.62,2.98c-1.18,0.71-2.5,1.06-4.02,1.06
		c-1.52,0-2.98-0.37-4.33-1.09c-1.35-0.72-2.49-1.77-3.38-3.1c-0.9-1.34-1.43-2.8-1.6-4.34c-0.25-2.39,0.33-4.35,1.78-6.02
		c1.44-1.65,3.24-2.46,5.5-2.46c2.29,0,4.31,0.83,6.17,2.54c1.87,1.72,2.9,3.73,3.16,6.16C348.83,36.6,348.61,38.03,348.01,39.34z"
		/>
	<path class="st0" d="M368.86,22.86c-0.23-0.57-0.69-1.02-1.28-1.23c-0.74-0.27-1.45-0.4-2.12-0.4c-1.35,0-2.62,0.41-3.78,1.21
		c-0.43,0.3-0.85,0.67-1.25,1.09c-0.19-0.96-1.07-1.69-2.06-1.69h-1.31c-0.55,0-1.07,0.23-1.42,0.62c-0.36,0.4-0.53,0.94-0.47,1.48
		l2.33,22c0.11,1.05,1.03,1.88,2.09,1.88h1.31c0.55,0,1.07-0.23,1.42-0.62c0.36-0.4,0.53-0.94,0.47-1.48l-0.76-7.15
		c-0.53-5-0.46-7.08-0.31-7.94c0.27-1.53,0.76-2.65,1.46-3.33c0.66-0.64,1.35-0.95,2.09-0.95c0.12,0,0.33,0.02,0.67,0.12
		c0.19,0.06,0.39,0.09,0.59,0.09c0.72,0,1.38-0.39,1.7-1.01l0.56-1.08C369.05,23.98,369.07,23.4,368.86,22.86z"/>
	<g>
		<path class="st0" d="M371.6,19.24c0.9-0.03,1.75-0.42,2.34-1.07c0.63-0.68,0.93-1.53,0.87-2.46c-0.06-1.05-0.61-2.1-1.47-2.8
			c-0.71-0.58-1.53-0.88-2.43-0.88c-0.91,0-1.73,0.33-2.35,0.94c-0.76,0.75-1.11,1.84-0.96,2.93c0.13,0.89,0.55,1.67,1.26,2.31
			c0.75,0.68,1.62,1.02,2.58,1.02C371.5,19.24,371.55,19.24,371.6,19.24z"/>
		<path class="st0" d="M377.06,46.26l-2.44-23.08c-0.08-0.75-0.74-1.34-1.5-1.34h-2.32c-0.41,0-0.79,0.17-1.06,0.47
			c-0.27,0.3-0.4,0.7-0.36,1.1l2.44,23.08c0.08,0.75,0.74,1.34,1.5,1.34h2.32c0.41,0,0.79-0.17,1.06-0.47
			C376.97,47.06,377.1,46.66,377.06,46.26z"/>
	</g>
	<path class="st0" d="M391.8,24.13c-0.14-1.28-1.25-2.29-2.55-2.29h-2.23c-0.18,0-0.38-0.18-0.4-0.36l-0.66-6.2
		c-0.14-1.28-1.25-2.29-2.55-2.29H383c-0.66,0-1.28,0.27-1.7,0.74c-0.43,0.47-0.63,1.12-0.57,1.77l0.66,6.2
		c0.01,0.05,0,0.09-0.02,0.11c-0.02,0.03-0.07,0.03-0.1,0.03h-1.54c-0.66,0-1.28,0.27-1.7,0.74c-0.43,0.47-0.63,1.12-0.57,1.77
		c0.14,1.28,1.25,2.29,2.55,2.29h1.54c0.18,0,0.38,0.18,0.4,0.36l1.96,18.53c0.14,1.28,1.25,2.29,2.55,2.29h0.42
		c0.66,0,1.28-0.27,1.7-0.74c0.43-0.47,0.63-1.12,0.57-1.77l-1.96-18.53c-0.01-0.05,0-0.09,0.02-0.11c0.02-0.03,0.07-0.03,0.1-0.03
		h2.23c0.66,0,1.28-0.27,1.7-0.74C391.66,25.43,391.87,24.78,391.8,24.13z"/>
	<path class="st0" d="M419.24,38.71l-0.69-0.34c-0.32-0.16-0.67-0.24-1.02-0.24c-0.77,0-1.47,0.41-1.84,1.06
		c-0.56,1.02-1.11,1.78-1.62,2.26c-0.63,0.6-1.44,1.09-2.41,1.45c-0.98,0.37-2.03,0.56-3.11,0.56c-2.27,0-4.2-0.77-5.92-2.37
		c-1.45-1.34-2.38-2.96-2.84-4.95l19.11,0c0.63,0,1.22-0.27,1.61-0.74c0.4-0.48,0.56-1.11,0.45-1.75c-0.54-2.91-1.74-5.41-3.59-7.45
		c-2.97-3.3-6.7-4.98-11.09-4.98c-4.33,0-7.67,1.68-9.93,4.98c-1.76,2.57-2.47,5.53-2.13,8.8c0.36,3.44,1.88,6.56,4.52,9.28
		c2.68,2.75,6.16,4.15,10.36,4.15c1.89,0,3.6-0.29,5.06-0.88c1.47-0.59,2.78-1.45,3.9-2.58c0.87-0.88,1.63-1.98,2.26-3.27
		C420.87,40.63,420.38,39.28,419.24,38.71z M406.62,26.31c1.34,0,2.71,0.31,3.98,0.9c1.12,0.52,2.05,1.2,2.79,2.01
		c0.52,0.57,0.99,1.28,1.4,2.13l-14.68,0c-0.04,0-0.08-0.02-0.12-0.06c-0.04-0.05-0.06-0.09-0.06-0.1c0.38-1.25,0.93-2.24,1.63-2.92
		c1.29-1.27,2.88-1.9,4.86-1.95C406.5,26.32,406.56,26.31,406.62,26.31z"/>
	<path class="st0" d="M36.28,63.83l-13.95,5.82c-2.33,0.97-5.01-0.12-5.99-2.43l-5.85-13.86c-0.98-2.31,0.12-4.98,2.45-5.95
		l13.95-5.82c2.33-0.97,5.01,0.12,5.99,2.43l5.85,13.86C39.7,60.19,38.61,62.86,36.28,63.83z"/>
	<path class="st0" d="M60.72,53.63l-13.95,5.82c-2.33,0.97-5.01-0.12-5.99-2.43l-5.85-13.86c-0.98-2.31,0.12-4.98,2.45-5.95
		l13.95-5.82c2.33-0.97,5.01,0.12,5.99,2.43l5.85,13.86C64.15,50,63.05,52.66,60.72,53.63z"/>
	<path class="st1" d="M57.05,23.78l-17.78,7.41c-2.97,1.24-6.39-0.15-7.63-3.1l-7.46-17.67C23.1,7.87,24,5,26.17,3.46l0,0
		C35.23-1.21,41.8-1.86,43.9,5.94c0.26,0.96,1.37,1.41,2.23,0.91c6.99-4.1,11.22,0.94,14.4,10.58l0,0
		C61,20.03,59.61,22.71,57.05,23.78z"/>
	<path class="st0" d="M26.14,39.83L12.2,45.64c-2.33,0.97-5.01-0.12-5.99-2.43L0.36,29.35c-0.98-2.31,0.12-4.98,2.45-5.95
		l13.95-5.82c2.33-0.97,5.01,0.12,5.99,2.43l5.85,13.86C29.57,36.19,28.47,38.85,26.14,39.83z"/>
</g>
</svg>
